<svg xmlns="http://www.w3.org/2000/svg" viewBox="0 0 3000 3000" width="512" height="512" role="img" aria-label="OddWave">
  <rect width="3000" height="3000" rx="540" fill="#0B1416"/>
  <path d="M 756.00,820.00 C 762.21,819.44 766.56,814.05 771.00,810.13 771.00,810.13 781.88,800.90 781.88,800.90 781.88,800.90 812.75,776.96 812.75,776.96 812.75,776.96 817.26,773.15 817.26,773.15 817.26,773.15 823.87,768.98 823.87,768.98 823.87,768.98 828.44,765.24 828.44,765.24 828.44,765.24 843.99,754.64 843.99,754.64 843.99,754.64 850.28,749.79 850.28,749.79 850.28,749.79 886.00,727.87 886.00,727.87 886.00,727.87 891.42,723.92 891.42,723.92 891.42,723.92 912.42,712.74 912.42,712.74 912.42,712.74 918.00,710.32 918.00,710.32 939.67,698.06 962.24,686.84 985.00,676.76 985.00,676.76 1002.00,668.50 1002.00,668.50 1002.00,668.50 1010.82,665.58 1010.82,665.58 1010.82,665.58 1015.51,662.76 1015.51,662.76 1015.51,662.76 1030.28,656.31 1030.28,656.31 1030.28,656.31 1057.99,646.03 1057.99,646.03 1057.99,646.03 1078.17,637.81 1078.17,637.81 1078.17,637.81 1085.00,635.95 1085.00,635.95 1085.00,635.95 1115.00,625.29 1115.00,625.29 1115.00,625.29 1122.00,623.55 1122.00,623.55 1122.00,623.55 1141.00,616.97 1141.00,616.97 1141.00,616.97 1152.00,613.96 1152.00,613.96 1152.00,613.96 1160.00,612.54 1160.00,612.54 1160.00,612.54 1167.28,609.43 1167.28,609.43 1167.28,609.43 1203.96,603.16 1203.96,603.16 1203.96,603.16 1223.00,596.04 1223.00,596.04 1223.00,596.04 1236.00,593.26 1236.00,593.26 1236.00,593.26 1244.00,592.52 1244.00,592.52 1244.00,592.52 1252.00,590.26 1252.00,590.26 1252.00,590.26 1258.83,589.53 1258.83,589.53 1258.83,589.53 1266.01,587.44 1266.01,587.44 1266.01,587.44 1275.00,586.74 1275.00,586.74 1275.00,586.74 1285.00,584.43 1285.00,584.43 1285.00,584.43 1296.00,583.74 1296.00,583.74 1296.00,583.74 1303.00,581.93 1303.00,581.93 1303.00,581.93 1310.91,581.93 1310.91,581.93 1310.91,581.93 1316.17,580.22 1316.17,580.22 1319.13,579.62 1324.95,579.04 1328.00,579.00 1328.00,579.00 1356.00,575.87 1356.00,575.87 1356.00,575.87 1368.00,575.87 1368.00,575.87 1368.00,575.87 1375.00,574.00 1375.00,574.00 1375.00,574.00 1384.00,574.00 1384.00,574.00 1389.90,573.21 1387.37,572.02 1397.00,572.00 1397.00,572.00 1421.00,572.00 1421.00,572.00 1421.00,572.00 1438.00,571.00 1438.00,571.00 1438.00,571.00 1514.00,571.00 1514.00,571.00 1514.00,571.00 1529.00,572.00 1529.00,572.00 1529.00,572.00 1558.00,572.00 1558.00,572.00 1569.36,572.02 1565.88,573.95 1576.00,574.00 1590.49,574.07 1584.50,575.03 1592.00,575.94 1592.00,575.94 1608.00,575.94 1608.00,575.94 1608.00,575.94 1626.83,577.24 1626.83,577.24 1630.82,577.94 1629.48,578.89 1636.00,579.00 1636.00,579.00 1646.00,579.00 1646.00,579.00 1646.00,579.00 1662.00,580.26 1662.00,580.26 1662.00,580.26 1669.00,581.94 1669.00,581.94 1669.00,581.94 1677.00,581.94 1677.00,581.94 1683.67,582.11 1683.24,583.34 1688.00,584.08 1688.00,584.08 1699.00,584.08 1699.00,584.08 1699.00,584.08 1711.09,586.74 1711.09,586.74 1711.09,586.74 1720.00,587.59 1720.00,587.59 1720.00,587.59 1729.00,589.99 1729.00,589.99 1729.00,589.99 1734.83,589.99 1734.83,589.99 1734.83,589.99 1741.04,592.04 1741.04,592.04 1741.04,592.04 1749.00,593.24 1749.00,593.24 1749.00,593.24 1755.00,594.75 1755.00,594.75 1755.00,594.75 1763.00,595.92 1763.00,595.92 1763.00,595.92 1778.04,600.16 1778.04,600.16 1778.04,600.16 1804.72,606.43 1804.72,606.43 1804.72,606.43 1820.00,611.61 1820.00,611.61 1823.32,612.26 1825.36,610.69 1828.00,609.00 1828.00,609.00 1825.00,614.00 1825.00,614.00 1835.23,614.32 1841.13,619.08 1849.00,621.00 1849.00,621.00 1849.00,616.00 1849.00,616.00 1849.00,616.00 1851.00,616.00 1851.00,616.00 1852.71,626.06 1861.34,623.53 1865.68,625.25 1865.68,625.25 1870.32,628.33 1870.32,628.33 1870.32,628.33 1877.42,631.04 1877.42,631.04 1877.42,631.04 1918.00,647.84 1918.00,647.84 1918.00,647.84 1954.00,665.13 1954.00,665.13 1954.00,665.13 1962.00,668.48 1962.00,668.48 1962.00,668.48 1970.00,673.16 1970.00,673.16 1970.00,673.16 1983.17,679.99 1983.17,679.99 1987.00,682.11 1989.67,684.56 1994.00,683.00 1994.00,683.00 1993.00,686.00 1993.00,686.00 1993.00,686.00 2009.00,694.64 2009.00,694.64 2009.00,694.64 2027.99,705.80 2027.99,705.80 2027.99,705.80 2034.28,710.09 2034.28,710.09 2034.28,710.09 2040.00,713.02 2040.00,713.02 2040.00,713.02 2047.96,718.74 2047.96,718.74 2047.96,718.74 2063.00,728.40 2063.00,728.40 2063.00,728.40 2070.00,735.00 2070.00,735.00 2075.03,734.56 2080.85,740.88 2085.00,743.87 2085.00,743.87 2118.00,768.91 2118.00,768.91 2118.00,768.91 2125.57,774.31 2125.57,774.31 2125.57,774.31 2141.26,788.00 2141.26,788.00 2141.26,788.00 2151.10,795.77 2151.10,795.77 2151.10,795.77 2159.30,803.63 2159.30,803.63 2159.30,803.63 2178.29,820.71 2178.29,820.71 2178.29,820.71 2220.25,864.57 2220.25,864.57 2220.25,864.57 2245.24,893.01 2245.24,893.01 2249.32,897.54 2254.97,901.75 2256.00,908.00 2260.89,909.82 2264.04,915.61 2267.28,919.54 2267.28,919.54 2272.87,925.67 2272.87,925.67 2272.87,925.67 2278.45,934.00 2278.45,934.00 2278.45,934.00 2288.41,947.00 2288.41,947.00 2288.41,947.00 2306.03,971.00 2306.03,971.00 2306.03,971.00 2312.58,981.42 2312.58,981.42 2312.58,981.42 2318.12,989.00 2318.12,989.00 2318.12,989.00 2341.43,1030.00 2341.43,1030.00 2341.43,1030.00 2349.59,1045.00 2349.59,1045.00 2349.59,1045.00 2352.58,1053.00 2352.58,1053.00 2352.58,1053.00 2358.41,1065.00 2358.41,1065.00 2358.41,1065.00 2362.87,1078.00 2362.87,1078.00 2362.87,1078.00 2371.78,1103.00 2371.78,1103.00 2372.92,1108.00 2375.31,1113.49 2371.78,1118.00 2370.42,1110.72 2363.10,1098.09 2359.43,1091.00 2359.43,1091.00 2339.95,1057.99 2339.95,1057.99 2339.95,1057.99 2335.80,1050.51 2335.80,1050.51 2335.80,1050.51 2318.74,1028.00 2318.74,1028.00 2313.53,1021.20 2299.33,1003.62 2292.00,1000.00 2292.00,1000.00 2318.36,1042.01 2318.36,1042.01 2318.36,1042.01 2322.84,1051.00 2322.84,1051.00 2322.84,1051.00 2328.45,1060.00 2328.45,1060.00 2328.45,1060.00 2339.15,1081.58 2339.15,1081.58 2339.15,1081.58 2357.61,1119.00 2357.61,1119.00 2357.61,1119.00 2362.17,1131.00 2362.17,1131.00 2362.17,1131.00 2370.63,1151.00 2370.63,1151.00 2370.63,1151.00 2383.70,1188.00 2383.70,1188.00 2385.73,1194.81 2388.94,1198.62 2387.00,1206.00 2382.46,1203.45 2383.21,1201.38 2381.04,1197.00 2381.04,1197.00 2375.87,1188.00 2375.87,1188.00 2375.87,1188.00 2370.79,1177.00 2370.79,1177.00 2370.79,1177.00 2363.49,1163.83 2363.49,1163.83 2363.49,1163.83 2357.33,1150.99 2357.33,1150.99 2357.33,1150.99 2353.09,1144.00 2353.09,1144.00 2353.09,1144.00 2345.37,1129.00 2345.37,1129.00 2345.37,1129.00 2336.16,1113.00 2336.16,1113.00 2336.16,1113.00 2315.19,1077.96 2315.19,1077.96 2315.19,1077.96 2306.79,1063.42 2306.79,1063.42 2306.79,1063.42 2286.99,1034.00 2286.99,1034.00 2286.99,1034.00 2282.82,1026.51 2282.82,1026.51 2282.82,1026.51 2252.45,984.00 2252.45,984.00 2252.45,984.00 2246.46,977.00 2246.46,977.00 2246.46,977.00 2240.84,968.46 2240.84,968.46 2240.84,968.46 2229.95,955.96 2229.95,955.96 2229.95,955.96 2224.05,948.04 2224.05,948.04 2224.05,948.04 2213.53,936.17 2213.53,936.17 2213.53,936.17 2207.87,929.00 2207.87,929.00 2207.87,929.00 2193.05,914.00 2193.05,914.00 2193.05,914.00 2186.58,906.42 2186.58,906.42 2186.58,906.42 2180.08,900.89 2180.08,900.89 2180.08,900.89 2164.89,886.19 2164.89,886.19 2164.89,886.19 2157.92,880.49 2157.92,880.49 2157.92,880.49 2151.54,874.29 2151.54,874.29 2151.54,874.29 2137.72,864.41 2137.72,864.41 2137.72,864.41 2117.00,849.93 2117.00,849.93 2115.43,849.24 2114.60,849.24 2113.00,849.00 2113.00,849.00 2121.99,856.77 2121.99,856.77 2121.99,856.77 2130.75,865.21 2130.75,865.21 2130.75,865.21 2137.00,870.13 2137.00,870.13 2137.00,870.13 2148.00,880.74 2148.00,880.74 2148.00,880.74 2155.00,886.13 2155.00,886.13 2155.00,886.13 2184.98,916.00 2184.98,916.00 2184.98,916.00 2197.13,930.02 2197.13,930.02 2197.13,930.02 2210.78,944.15 2210.78,944.15 2210.78,944.15 2227.20,964.29 2227.20,964.29 2227.20,964.29 2240.75,980.00 2240.75,980.00 2240.75,980.00 2249.15,991.54 2249.15,991.54 2249.15,991.54 2254.49,997.51 2254.49,997.51 2254.49,997.51 2261.08,1007.00 2261.08,1007.00 2261.08,1007.00 2287.65,1045.83 2287.65,1045.83 2287.65,1045.83 2306.02,1074.01 2306.02,1074.01 2306.02,1074.01 2309.80,1082.00 2309.80,1082.00 2309.80,1082.00 2315.44,1091.00 2315.44,1091.00 2315.44,1091.00 2330.76,1121.01 2330.76,1121.01 2330.76,1121.01 2336.89,1133.28 2336.89,1133.28 2336.89,1133.28 2341.20,1144.00 2341.20,1144.00 2341.20,1144.00 2349.05,1160.00 2349.05,1160.00 2349.05,1160.00 2351.71,1169.00 2351.71,1169.00 2351.71,1169.00 2361.42,1194.00 2361.42,1194.00 2361.42,1194.00 2366.83,1209.96 2366.83,1209.96 2366.83,1209.96 2368.17,1216.06 2368.17,1216.06 2368.17,1216.06 2366.00,1219.00 2366.00,1219.00 2366.00,1219.00 2345.65,1184.00 2345.65,1184.00 2345.65,1184.00 2321.92,1146.72 2321.92,1146.72 2321.92,1146.72 2311.04,1129.17 2311.04,1129.17 2311.04,1129.17 2302.44,1118.00 2302.44,1118.00 2302.44,1118.00 2291.96,1102.26 2291.96,1102.26 2291.96,1102.26 2287.25,1097.04 2287.25,1097.04 2287.25,1097.04 2277.00,1081.00 2277.00,1081.00 2277.00,1081.00 2274.00,1082.00 2274.00,1082.00 2274.00,1082.00 2266.00,1066.00 2266.00,1066.00 2266.00,1066.00 2263.00,1068.00 2263.00,1068.00 2263.00,1068.00 2264.00,1063.00 2264.00,1063.00 2258.27,1059.88 2254.70,1054.05 2250.80,1049.00 2250.80,1049.00 2234.24,1029.00 2234.24,1029.00 2234.24,1029.00 2228.87,1022.00 2228.87,1022.00 2228.87,1022.00 2216.12,1008.00 2216.12,1008.00 2216.12,1008.00 2210.87,1001.46 2210.87,1001.46 2210.87,1001.46 2192.17,982.04 2192.17,982.04 2192.17,982.04 2178.58,967.02 2178.58,967.02 2178.58,967.02 2172.42,961.58 2172.42,961.58 2172.42,961.58 2166.29,954.63 2166.29,954.63 2166.29,954.63 2156.03,944.51 2156.03,944.51 2152.15,940.47 2151.27,941.77 2148.00,936.00 2148.00,936.00 2145.00,937.00 2145.00,937.00 2140.95,928.44 2124.63,916.16 2117.04,909.17 2117.04,909.17 2084.27,882.20 2084.27,882.20 2084.27,882.20 2063.96,865.69 2063.96,865.69 2063.96,865.69 2052.00,857.30 2052.00,857.30 2052.00,857.30 2031.83,842.04 2031.83,842.04 2031.83,842.04 2024.00,837.34 2024.00,837.34 2024.00,837.34 2008.68,826.65 2008.68,826.65 2008.68,826.65 1999.00,820.84 1999.00,820.84 1994.53,817.70 1989.83,817.25 1988.00,812.00 1988.00,812.00 1976.00,809.00 1976.00,809.00 1976.00,809.00 1978.00,808.00 1978.00,808.00 1978.00,808.00 1978.00,807.00 1978.00,807.00 1969.33,804.72 1948.89,791.07 1939.72,786.60 1939.72,786.60 1907.72,770.75 1907.72,770.75 1907.72,770.75 1891.00,763.80 1891.00,763.80 1891.00,763.80 1884.00,760.20 1884.00,760.20 1884.00,760.20 1851.01,747.72 1851.01,747.72 1851.01,747.72 1843.83,744.39 1843.83,744.39 1843.83,744.39 1836.28,742.60 1836.28,742.60 1836.28,742.60 1811.83,733.44 1811.83,733.44 1811.83,733.44 1802.00,731.40 1802.00,731.40 1802.00,731.40 1795.00,728.74 1795.00,728.74 1795.00,728.74 1788.00,727.03 1788.00,727.03 1788.00,727.03 1774.00,722.69 1774.00,722.69 1774.00,722.69 1759.00,719.60 1759.00,719.60 1759.00,719.60 1742.00,714.52 1742.00,714.52 1742.00,714.52 1732.00,712.25 1732.00,712.25 1732.00,712.25 1724.09,711.17 1724.09,711.17 1724.09,711.17 1707.00,706.84 1707.00,706.84 1707.00,706.84 1699.00,705.55 1699.00,705.55 1699.00,705.55 1692.00,703.63 1692.00,703.63 1692.00,703.63 1672.00,700.74 1672.00,700.74 1672.00,700.74 1665.00,698.96 1665.00,698.96 1665.00,698.96 1654.00,697.74 1654.00,697.74 1654.00,697.74 1642.00,695.04 1642.00,695.04 1642.00,695.04 1633.00,695.04 1633.00,695.04 1633.00,695.04 1617.91,691.26 1617.91,691.26 1617.91,691.26 1591.00,690.00 1591.00,690.00 1584.33,689.89 1584.76,688.66 1580.00,688.13 1580.00,688.13 1559.00,687.00 1559.00,687.00 1559.00,687.00 1541.00,687.00 1541.00,687.00 1541.00,687.00 1520.00,685.00 1520.00,685.00 1520.00,685.00 1482.00,685.00 1482.00,685.00 1471.88,685.05 1475.36,686.98 1464.00,687.00 1464.00,687.00 1427.00,688.05 1427.00,688.05 1421.73,688.41 1421.84,689.88 1415.00,690.00 1415.00,690.00 1390.00,691.26 1390.00,691.26 1390.00,691.26 1375.83,694.76 1375.83,694.76 1375.83,694.76 1364.00,695.76 1364.00,695.76 1364.00,695.76 1356.00,697.63 1356.00,697.63 1356.00,697.63 1346.00,698.96 1346.00,698.96 1346.00,698.96 1339.00,700.74 1339.00,700.74 1339.00,700.74 1333.00,701.26 1333.00,701.26 1333.00,701.26 1315.00,705.55 1315.00,705.55 1315.00,705.55 1309.00,706.55 1309.00,706.55 1309.00,706.55 1303.00,708.53 1303.00,708.53 1303.00,708.53 1297.00,709.46 1297.00,709.46 1297.00,709.46 1261.83,719.19 1261.83,719.19 1251.29,722.65 1253.14,719.68 1242.00,727.00 1236.19,725.80 1230.35,728.68 1225.00,730.75 1225.00,730.75 1203.00,738.91 1203.00,738.91 1203.00,738.91 1188.00,744.29 1188.00,744.29 1188.00,744.29 1157.00,757.95 1157.00,757.95 1141.56,763.74 1130.17,765.69 1118.01,778.00 1110.95,785.16 1100.58,795.13 1101.39,806.00 1102.19,816.78 1108.49,819.87 1115.42,826.37 1115.42,826.37 1124.96,836.00 1124.96,836.00 1140.36,852.10 1153.36,870.93 1164.80,890.00 1200.28,949.14 1231.13,1032.50 1250.58,1099.00 1282.15,1207.00 1307.86,1326.09 1319.84,1438.00 1319.84,1438.00 1324.09,1485.00 1324.09,1485.00 1324.09,1485.00 1326.00,1513.00 1326.00,1513.00 1326.00,1513.00 1327.00,1528.00 1327.00,1528.00 1327.00,1528.00 1328.91,1566.00 1328.91,1566.00 1328.91,1566.00 1330.09,1589.00 1330.09,1589.00 1330.09,1589.00 1331.91,1608.00 1331.91,1608.00 1335.88,1665.78 1342.14,1723.55 1350.00,1781.00 1358.94,1846.38 1374.34,1933.80 1397.42,1995.00 1403.55,2011.23 1412.70,2031.23 1423.13,2045.00 1426.49,2049.44 1433.63,2057.81 1439.00,2059.43 1442.12,2060.36 1450.24,2058.99 1453.00,2057.26 1460.59,2052.50 1471.32,2033.51 1475.00,2025.00 1475.00,2025.00 1486.30,2000.00 1486.30,2000.00 1486.30,2000.00 1497.88,1958.00 1497.88,1958.00 1497.88,1958.00 1517.00,1887.00 1517.00,1887.00 1517.00,1887.00 1561.12,1723.00 1561.12,1723.00 1561.12,1723.00 1570.72,1686.00 1570.72,1686.00 1570.72,1686.00 1585.67,1641.00 1585.67,1641.00 1591.29,1624.12 1596.44,1607.04 1604.26,1591.00 1604.26,1591.00 1615.13,1573.00 1615.13,1573.00 1628.42,1549.76 1629.51,1542.74 1649.17,1521.00 1655.21,1514.32 1658.44,1512.18 1665.00,1506.72 1693.77,1482.75 1723.01,1470.54 1760.00,1465.72 1760.00,1465.72 1776.00,1464.00 1776.00,1464.00 1794.22,1463.79 1813.33,1465.50 1831.00,1470.15 1860.68,1477.97 1888.49,1493.14 1911.00,1514.09 1911.00,1514.09 1923.09,1527.00 1923.09,1527.00 1923.09,1527.00 1934.48,1539.00 1934.48,1539.00 1942.56,1549.25 1960.44,1583.79 1967.26,1597.00 1967.26,1597.00 1984.74,1631.00 1984.74,1631.00 1984.74,1631.00 2034.26,1734.00 2034.26,1734.00 2034.26,1734.00 2051.53,1765.00 2051.53,1765.00 2057.46,1772.60 2060.15,1770.58 2067.25,1781.00 2069.87,1784.84 2073.30,1790.75 2075.13,1795.00 2076.13,1797.33 2077.48,1801.99 2078.84,1803.72 2081.44,1807.05 2085.41,1806.69 2089.00,1808.14 2092.48,1809.55 2095.18,1811.98 2097.36,1815.00 2103.54,1823.55 2102.19,1832.56 2102.90,1835.00 2103.53,1837.15 2108.48,1843.84 2110.09,1846.00 2116.46,1854.59 2119.80,1854.89 2126.71,1861.59 2129.42,1864.22 2132.80,1869.15 2136.04,1870.40 2140.36,1872.07 2145.88,1869.55 2151.00,1872.56 2151.00,1872.56 2163.00,1881.90 2163.00,1881.90 2163.00,1881.90 2177.00,1889.30 2177.00,1889.30 2190.15,1896.24 2200.52,1902.82 2216.00,1900.57 2218.74,1900.17 2221.53,1899.74 2224.00,1898.43 2227.10,1896.80 2230.54,1893.53 2232.96,1891.00 2237.32,1886.43 2238.14,1884.66 2240.44,1879.00 2243.51,1871.42 2245.27,1873.31 2245.12,1864.00 2245.03,1858.90 2245.11,1858.99 2246.00,1854.00 2246.00,1854.00 2235.00,1865.00 2235.00,1865.00 2231.57,1859.10 2229.42,1863.43 2224.00,1865.00 2223.54,1855.11 2221.84,1857.32 2222.00,1843.00 2222.00,1843.00 2224.00,1824.00 2224.00,1824.00 2224.00,1824.00 2224.00,1784.00 2224.00,1784.00 2224.00,1784.00 2222.00,1766.00 2222.00,1766.00 2221.99,1758.97 2221.97,1751.95 2220.75,1745.00 2220.75,1745.00 2219.26,1739.00 2219.26,1739.00 2219.26,1739.00 2218.57,1731.00 2218.57,1731.00 2215.32,1709.09 2197.27,1677.61 2197.00,1655.00 2197.00,1655.00 2197.00,1648.00 2197.00,1648.00 2197.02,1636.43 2203.19,1621.87 2209.19,1612.04 2214.35,1603.59 2219.27,1595.69 2227.00,1589.26 2236.78,1581.12 2246.58,1577.50 2258.01,1572.99 2271.81,1567.54 2285.33,1564.54 2300.00,1562.87 2300.00,1562.87 2307.00,1561.26 2307.00,1561.26 2307.00,1561.26 2323.00,1560.00 2323.00,1560.00 2323.00,1560.00 2340.83,1561.24 2340.83,1561.24 2340.83,1561.24 2346.09,1562.74 2346.09,1562.74 2346.09,1562.74 2354.00,1563.26 2354.00,1563.26 2368.06,1565.56 2381.94,1571.00 2395.00,1576.56 2399.19,1578.34 2401.27,1580.01 2405.00,1582.18 2405.00,1582.18 2410.68,1585.03 2410.68,1585.03 2410.68,1585.03 2416.18,1589.21 2416.18,1589.21 2416.18,1589.21 2424.00,1594.46 2424.00,1594.46 2429.50,1598.68 2436.40,1606.04 2441.37,1611.11 2441.37,1611.11 2449.16,1619.09 2449.16,1619.09 2449.16,1619.09 2459.27,1633.28 2459.27,1633.28 2465.82,1642.43 2472.52,1652.60 2476.97,1663.00 2476.97,1663.00 2480.43,1672.09 2480.43,1672.09 2481.99,1675.83 2484.22,1681.18 2485.17,1685.09 2486.84,1691.95 2488.91,1701.02 2489.13,1708.00 2489.13,1708.00 2489.13,1717.00 2489.13,1717.00 2490.29,1723.29 2490.98,1720.37 2491.00,1729.00 2491.00,1729.00 2491.00,1771.00 2491.00,1771.00 2490.88,1779.14 2489.02,1775.46 2489.00,1786.00 2488.99,1792.65 2489.00,1798.39 2487.76,1805.00 2487.76,1805.00 2486.26,1811.00 2486.26,1811.00 2486.26,1811.00 2485.72,1818.00 2485.72,1818.00 2485.72,1818.00 2482.62,1835.00 2482.62,1835.00 2482.62,1835.00 2479.45,1846.00 2479.45,1846.00 2479.45,1846.00 2464.25,1916.00 2464.25,1916.00 2464.25,1916.00 2440.74,1967.00 2440.74,1967.00 2440.74,1967.00 2419.25,2010.00 2419.25,2010.00 2419.25,2010.00 2402.69,2043.00 2402.69,2043.00 2402.69,2043.00 2393.49,2060.00 2393.49,2060.00 2390.50,2064.96 2386.33,2070.04 2386.00,2076.00 2381.06,2078.68 2375.85,2088.97 2372.69,2094.00 2372.69,2094.00 2362.15,2109.13 2362.15,2109.13 2362.15,2109.13 2345.58,2134.00 2345.58,2134.00 2345.58,2134.00 2328.56,2157.04 2328.56,2157.04 2328.56,2157.04 2321.63,2165.45 2321.63,2165.45 2321.63,2165.45 2303.83,2188.96 2303.83,2188.96 2303.83,2188.96 2295.61,2198.01 2295.61,2198.01 2295.61,2198.01 2279.85,2217.27 2279.85,2217.27 2279.85,2217.27 2270.74,2226.67 2270.74,2226.67 2270.74,2226.67 2264.90,2234.00 2264.90,2234.00 2264.90,2234.00 2247.07,2252.98 2247.07,2252.98 2241.75,2259.20 2230.48,2271.69 2224.00,2276.00 2224.00,2276.00 2226.00,2278.00 2226.00,2278.00 2220.51,2278.61 2214.89,2286.15 2211.00,2290.00 2211.00,2290.00 2195.00,2304.13 2195.00,2304.13 2195.00,2304.13 2186.02,2312.74 2186.02,2312.74 2181.86,2316.35 2176.31,2319.95 2174.00,2325.00 2168.73,2326.62 2160.32,2335.10 2158.00,2340.00 2158.00,2340.00 2157.00,2340.00 2157.00,2340.00 2157.00,2340.00 2155.00,2338.00 2155.00,2338.00 2148.84,2346.30 2139.51,2351.86 2131.46,2358.15 2131.46,2358.15 2126.25,2362.87 2126.25,2362.87 2119.47,2368.60 2099.38,2383.27 2092.00,2387.00 2092.00,2387.00 2094.00,2389.00 2094.00,2389.00 2087.57,2388.98 2076.34,2398.64 2070.74,2402.54 2070.74,2402.54 2024.00,2431.68 2024.00,2431.68 2024.00,2431.68 1989.00,2450.72 1989.00,2450.72 1989.00,2450.72 1979.91,2454.77 1979.91,2454.77 1979.91,2454.77 1954.83,2467.31 1954.83,2467.31 1954.83,2467.31 1942.04,2472.09 1942.04,2472.09 1942.04,2472.09 1925.00,2480.14 1925.00,2480.14 1925.00,2480.14 1867.00,2500.38 1867.00,2500.38 1867.00,2500.38 1860.00,2503.25 1860.00,2503.25 1860.00,2503.25 1850.00,2505.45 1850.00,2505.45 1850.00,2505.45 1832.00,2511.58 1832.00,2511.58 1832.00,2511.58 1822.09,2513.25 1822.09,2513.25 1822.09,2513.25 1815.91,2515.46 1815.91,2515.46 1815.91,2515.46 1809.00,2516.73 1809.00,2516.73 1809.00,2516.73 1795.26,2521.30 1795.26,2521.30 1792.74,2522.69 1792.26,2524.64 1788.95,2525.46 1784.74,2526.75 1780.38,2524.64 1776.00,2525.46 1776.00,2525.46 1768.00,2527.74 1768.00,2527.74 1768.00,2527.74 1760.00,2528.48 1760.00,2528.48 1760.00,2528.48 1752.00,2530.74 1752.00,2530.74 1752.00,2530.74 1745.17,2531.47 1745.17,2531.47 1745.17,2531.47 1738.96,2533.38 1738.96,2533.38 1738.96,2533.38 1730.00,2534.13 1730.00,2534.13 1730.00,2534.13 1723.00,2535.74 1723.00,2535.74 1723.00,2535.74 1714.00,2536.43 1714.00,2536.43 1714.00,2536.43 1704.00,2538.74 1704.00,2538.74 1704.00,2538.74 1696.00,2539.26 1696.00,2539.26 1696.00,2539.26 1689.00,2540.91 1689.00,2540.91 1689.00,2540.91 1672.00,2542.13 1672.00,2542.13 1672.00,2542.13 1665.00,2543.74 1665.00,2543.74 1665.00,2543.74 1649.00,2545.10 1649.00,2545.10 1649.00,2545.10 1636.00,2545.10 1636.00,2545.10 1631.03,2545.90 1631.93,2546.90 1625.00,2547.00 1625.00,2547.00 1603.00,2547.00 1603.00,2547.00 1603.00,2547.00 1585.00,2549.00 1585.00,2549.00 1585.00,2549.00 1542.00,2549.00 1542.00,2549.00 1542.00,2549.00 1524.00,2547.00 1524.00,2547.00 1524.00,2547.00 1502.00,2547.00 1502.00,2547.00 1493.97,2546.96 1495.72,2546.00 1490.00,2545.10 1490.00,2545.10 1479.00,2545.10 1479.00,2545.10 1479.00,2545.10 1461.00,2543.74 1461.00,2543.74 1461.00,2543.74 1454.00,2542.13 1454.00,2542.13 1454.00,2542.13 1437.00,2540.89 1437.00,2540.89 1437.00,2540.89 1430.00,2539.26 1430.00,2539.26 1430.00,2539.26 1422.00,2538.74 1422.00,2538.74 1422.00,2538.74 1414.00,2536.88 1414.00,2536.88 1414.00,2536.88 1388.00,2533.23 1388.00,2533.23 1388.00,2533.23 1369.00,2528.96 1369.00,2528.96 1369.00,2528.96 1360.00,2527.75 1360.00,2527.75 1360.00,2527.75 1352.00,2525.48 1352.00,2525.48 1352.00,2525.48 1325.00,2519.58 1325.00,2519.58 1325.00,2519.58 1317.00,2516.71 1317.00,2516.71 1317.00,2516.71 1305.00,2513.42 1305.00,2513.42 1305.00,2513.42 1295.00,2511.54 1295.00,2511.54 1295.00,2511.54 1287.00,2508.43 1287.00,2508.43 1287.00,2508.43 1270.00,2504.03 1270.00,2504.03 1270.00,2504.03 1253.00,2497.71 1253.00,2497.71 1253.00,2497.71 1233.00,2491.34 1233.00,2491.34 1233.00,2491.34 1212.00,2482.88 1212.00,2482.88 1212.00,2482.88 1202.00,2479.44 1202.00,2479.44 1202.00,2479.44 1185.00,2471.58 1185.00,2471.58 1185.00,2471.58 1170.00,2465.45 1170.00,2465.45 1170.00,2465.45 1161.00,2461.13 1161.00,2461.13 1161.00,2461.13 1154.00,2456.92 1154.00,2456.92 1154.00,2456.92 1141.00,2452.05 1141.00,2452.05 1141.00,2452.05 1090.00,2426.25 1090.00,2426.25 1090.00,2426.25 1056.00,2408.43 1056.00,2408.43 1051.75,2406.06 1047.97,2406.13 1045.00,2402.00 1045.00,2402.00 1026.00,2392.77 1026.00,2392.77 1026.00,2392.77 982.00,2367.00 982.00,2367.00 982.00,2367.00 887.00,2309.72 887.00,2309.72 887.00,2309.72 864.00,2293.70 864.00,2293.70 864.00,2293.70 842.68,2278.27 842.68,2278.27 842.68,2278.27 836.37,2273.98 836.37,2273.98 836.37,2273.98 831.81,2269.73 831.81,2269.73 831.81,2269.73 814.00,2254.00 814.00,2254.00 814.00,2254.00 812.00,2256.00 812.00,2256.00 813.09,2251.46 809.89,2251.19 806.00,2247.79 803.05,2245.22 794.76,2235.49 793.00,2232.00 793.00,2232.00 806.00,2237.00 806.00,2237.00 808.61,2241.82 813.35,2243.88 818.00,2246.47 825.25,2250.52 829.87,2254.40 838.00,2257.00 833.54,2251.74 824.49,2245.83 819.00,2241.55 819.00,2241.55 802.70,2227.42 802.70,2227.42 798.46,2224.13 786.70,2214.56 785.00,2210.00 785.00,2210.00 782.00,2211.00 782.00,2211.00 782.00,2211.00 748.58,2175.54 748.58,2175.54 745.11,2171.31 735.86,2160.28 731.00,2159.00 730.73,2153.66 728.01,2152.16 724.72,2148.13 724.72,2148.13 706.47,2125.00 706.47,2125.00 706.47,2125.00 696.44,2110.70 696.44,2110.70 696.44,2110.70 692.40,2105.74 692.40,2105.74 685.43,2096.06 679.61,2085.44 673.92,2075.00 668.54,2065.13 665.40,2061.29 661.00,2050.00 661.00,2050.00 678.00,2064.96 678.00,2064.96 678.00,2064.96 704.66,2091.42 704.66,2091.42 704.66,2091.42 749.12,2136.69 749.12,2136.69 749.12,2136.69 769.00,2153.24 769.00,2153.24 769.00,2153.24 779.04,2162.26 779.04,2162.26 779.04,2162.26 798.00,2176.72 798.00,2176.72 798.00,2176.72 830.00,2196.82 830.00,2196.82 830.00,2196.82 841.00,2200.00 841.00,2200.00 841.00,2200.00 799.00,2158.00 799.00,2158.00 799.00,2158.00 777.18,2136.00 777.18,2136.00 777.18,2136.00 738.11,2085.01 738.11,2085.01 738.11,2085.01 726.46,2073.01 726.46,2073.01 726.46,2073.01 715.59,2058.00 715.59,2058.00 715.59,2058.00 685.83,2015.00 685.83,2015.00 685.83,2015.00 680.82,2008.00 680.82,2008.00 680.82,2008.00 673.34,1995.00 673.34,1995.00 673.34,1995.00 667.43,1986.83 667.43,1986.83 667.43,1986.83 654.34,1963.27 654.34,1963.27 654.34,1963.27 648.79,1955.00 648.79,1955.00 648.79,1955.00 641.85,1940.00 641.85,1940.00 641.85,1940.00 635.42,1929.00 635.42,1929.00 635.42,1929.00 631.15,1919.17 631.15,1919.17 631.15,1919.17 623.09,1904.00 623.09,1904.00 616.98,1889.98 619.92,1888.80 609.98,1872.00 609.98,1872.00 600.75,1850.21 600.75,1850.21 599.35,1848.47 598.94,1848.53 597.00,1848.00 597.00,1848.00 595.00,1845.00 595.00,1845.00 595.00,1845.00 600.00,1846.00 600.00,1846.00 600.00,1846.00 589.17,1814.00 589.17,1814.00 589.17,1814.00 581.70,1789.00 581.70,1789.00 581.70,1789.00 580.55,1781.00 580.55,1781.00 580.55,1781.00 576.96,1768.00 576.96,1768.00 576.96,1768.00 575.75,1759.00 575.75,1759.00 575.75,1759.00 573.44,1750.00 573.44,1750.00 573.44,1750.00 572.74,1743.09 572.74,1743.09 572.74,1743.09 569.26,1730.00 569.26,1730.00 569.26,1730.00 567.79,1711.00 567.79,1711.00 567.79,1711.00 565.42,1699.00 565.42,1699.00 565.42,1699.00 564.55,1688.00 564.55,1688.00 564.55,1688.00 561.26,1676.00 561.26,1676.00 561.26,1676.00 560.72,1666.00 560.72,1666.00 560.72,1666.00 558.26,1654.00 558.26,1654.00 558.26,1654.00 556.79,1629.00 556.79,1629.00 555.37,1618.76 553.13,1614.34 553.00,1603.00 553.00,1603.00 551.74,1587.09 551.74,1587.09 550.97,1582.85 550.10,1584.47 549.94,1578.00 549.94,1578.00 549.94,1565.04 549.94,1565.04 549.08,1558.47 548.15,1563.68 548.00,1551.00 548.00,1551.00 547.00,1536.00 547.00,1536.00 547.00,1536.00 547.00,1474.00 547.00,1474.00 547.00,1474.00 548.21,1457.00 548.21,1457.00 548.21,1457.00 549.96,1450.00 549.96,1450.00 549.96,1450.00 549.96,1441.00 549.96,1441.00 549.96,1441.00 551.91,1433.00 551.91,1433.00 551.91,1433.00 553.26,1420.00 553.26,1420.00 553.26,1420.00 556.55,1407.00 556.55,1407.00 556.55,1407.00 557.72,1398.00 557.72,1398.00 557.72,1398.00 558.37,1390.00 558.37,1390.00 558.37,1390.00 560.71,1379.00 560.71,1379.00 561.54,1372.35 559.78,1370.08 564.00,1364.00 567.02,1374.64 563.12,1379.65 563.00,1389.00 563.00,1389.00 563.00,1446.00 563.00,1446.00 563.00,1446.00 563.00,1464.00 563.00,1464.00 563.11,1470.67 564.34,1470.24 564.87,1475.00 565.44,1480.11 564.36,1481.21 566.00,1487.00 566.01,1475.21 567.98,1478.55 568.04,1468.00 568.04,1468.00 568.04,1452.00 568.04,1452.00 568.04,1452.00 569.12,1442.00 569.12,1442.00 569.12,1442.00 569.12,1430.17 569.12,1430.17 569.12,1430.17 570.74,1424.91 570.74,1424.91 570.74,1424.91 571.26,1419.00 571.26,1419.00 571.26,1419.00 572.74,1413.00 572.74,1413.00 572.74,1413.00 574.11,1396.00 574.11,1396.00 574.11,1396.00 575.74,1389.00 575.74,1389.00 575.74,1389.00 576.43,1380.00 576.43,1380.00 576.43,1380.00 578.55,1371.00 578.55,1371.00 578.55,1371.00 579.26,1364.00 579.26,1364.00 579.26,1364.00 580.74,1358.00 580.74,1358.00 580.74,1358.00 582.25,1342.00 582.25,1342.00 582.25,1342.00 586.54,1326.00 586.54,1326.00 586.54,1326.00 592.46,1297.00 592.46,1297.00 592.46,1297.00 597.08,1281.00 597.08,1281.00 597.08,1281.00 600.46,1265.00 600.46,1265.00 600.46,1265.00 604.90,1250.91 604.90,1250.91 604.90,1250.91 606.39,1244.28 606.39,1244.28 606.39,1244.28 609.29,1236.00 609.29,1236.00 609.29,1236.00 610.68,1228.00 610.68,1228.00 610.68,1228.00 613.16,1222.00 613.16,1222.00 613.16,1222.00 620.83,1200.00 620.83,1200.00 620.83,1200.00 635.02,1161.00 635.02,1161.00 635.02,1161.00 643.11,1142.99 643.11,1142.99 643.11,1142.99 646.30,1134.00 646.30,1134.00 646.30,1134.00 662.04,1102.00 662.04,1102.00 662.04,1102.00 665.17,1094.58 665.17,1094.58 665.17,1094.58 672.60,1082.00 672.60,1082.00 672.60,1082.00 675.28,1076.00 675.28,1076.00 675.28,1076.00 688.80,1052.99 688.80,1052.99 688.80,1052.99 707.36,1024.00 707.36,1024.00 707.36,1024.00 714.37,1013.00 714.37,1013.00 714.37,1013.00 737.38,982.55 737.38,982.55 748.52,967.81 763.11,950.31 777.00,938.00 771.14,939.35 766.78,944.79 762.72,949.00 762.72,949.00 754.00,957.04 754.00,957.04 754.00,957.04 743.87,967.58 743.87,967.58 733.86,977.67 720.34,993.02 711.62,1004.30 711.62,1004.30 703.30,1016.00 703.30,1016.00 703.30,1016.00 689.20,1034.51 689.20,1034.51 689.20,1034.51 685.66,1041.00 685.66,1041.00 685.66,1041.00 674.58,1058.00 674.58,1058.00 674.58,1058.00 658.93,1083.00 658.93,1083.00 656.51,1087.41 654.08,1090.87 654.00,1096.00 649.54,1097.49 645.76,1107.73 643.69,1112.00 643.69,1112.00 621.21,1157.00 621.21,1157.00 621.21,1157.00 605.88,1192.00 605.88,1192.00 605.88,1192.00 603.96,1198.99 603.96,1198.99 603.96,1198.99 598.03,1212.00 598.03,1212.00 598.03,1212.00 588.72,1238.00 588.72,1238.00 588.72,1238.00 582.97,1251.00 582.97,1251.00 582.97,1251.00 580.25,1263.00 580.25,1263.00 580.25,1263.00 577.75,1269.00 577.75,1269.00 577.75,1269.00 568.17,1300.00 568.17,1300.00 568.17,1300.00 563.54,1313.00 563.54,1313.00 563.54,1313.00 562.70,1319.91 562.70,1319.91 562.70,1319.91 560.54,1325.17 560.54,1325.17 559.26,1329.05 560.50,1329.91 556.87,1336.00 556.87,1336.00 556.87,1327.00 556.87,1327.00 556.87,1327.00 555.47,1321.00 555.47,1321.00 555.47,1321.00 557.00,1303.00 557.00,1303.00 557.00,1303.00 558.01,1285.00 558.01,1285.00 558.01,1285.00 558.01,1278.09 558.01,1278.09 558.01,1278.09 560.23,1269.99 560.23,1269.99 560.23,1269.99 561.45,1261.00 561.45,1261.00 561.45,1261.00 564.41,1251.00 564.41,1251.00 564.41,1251.00 565.68,1244.00 565.68,1244.00 565.68,1244.00 567.51,1239.00 567.51,1239.00 567.51,1239.00 569.29,1228.00 569.29,1228.00 569.29,1228.00 572.62,1219.00 572.62,1219.00 572.62,1219.00 581.63,1191.00 581.63,1191.00 581.63,1191.00 600.28,1146.00 600.28,1146.00 600.28,1146.00 610.00,1126.00 610.00,1126.00 605.81,1130.02 598.11,1143.40 598.00,1149.00 592.72,1153.70 590.80,1160.81 587.75,1167.00 587.75,1167.00 571.41,1203.00 571.41,1203.00 571.41,1203.00 568.37,1211.83 568.37,1211.83 568.37,1211.83 565.04,1219.01 565.04,1219.01 565.04,1219.01 561.95,1229.00 561.95,1229.00 561.95,1229.00 557.51,1239.00 557.51,1239.00 557.51,1239.00 554.55,1253.00 554.55,1253.00 554.55,1253.00 548.31,1267.01 548.31,1267.01 548.31,1267.01 546.55,1282.00 546.55,1282.00 546.55,1282.00 544.70,1288.00 544.70,1288.00 544.70,1288.00 543.42,1296.00 543.42,1296.00 542.55,1298.62 541.05,1299.94 540.31,1303.00 540.31,1303.00 538.75,1316.00 538.75,1316.00 538.75,1316.00 536.48,1324.00 536.48,1324.00 536.48,1324.00 535.74,1332.00 535.74,1332.00 535.74,1332.00 532.45,1344.00 532.45,1344.00 532.45,1344.00 529.13,1365.00 529.13,1365.00 529.13,1365.00 528.00,1382.00 528.00,1382.00 528.00,1382.00 524.00,1411.00 524.00,1411.00 524.00,1411.00 524.00,1424.00 524.00,1424.00 524.00,1424.00 522.84,1440.00 522.84,1440.00 522.84,1440.00 522.84,1467.00 522.84,1467.00 522.84,1467.00 521.14,1476.00 521.14,1476.00 521.14,1476.00 522.99,1490.00 522.99,1490.00 523.15,1497.42 522.96,1499.72 515.00,1500.00 512.00,1492.58 509.65,1488.47 508.26,1480.00 508.26,1480.00 506.95,1457.01 506.95,1457.01 506.57,1451.77 505.11,1452.99 505.00,1446.00 505.00,1446.00 505.00,1376.00 505.00,1376.00 505.12,1369.16 506.59,1369.26 506.95,1364.00 506.95,1364.00 508.00,1342.00 508.00,1342.00 508.02,1332.35 509.11,1335.23 509.88,1329.00 509.88,1329.00 511.26,1312.00 511.26,1312.00 511.26,1312.00 514.74,1297.00 514.74,1297.00 514.74,1297.00 516.26,1280.00 516.26,1280.00 516.26,1280.00 519.75,1268.00 519.75,1268.00 519.75,1268.00 523.83,1246.09 523.83,1246.09 523.83,1246.09 525.75,1239.91 525.75,1239.91 525.75,1239.91 529.07,1224.17 529.07,1224.17 529.07,1224.17 534.42,1205.28 534.42,1205.28 534.42,1205.28 536.45,1199.96 536.45,1199.96 536.45,1199.96 537.42,1194.28 537.42,1194.28 537.42,1194.28 544.72,1172.00 544.72,1172.00 544.72,1172.00 550.49,1154.00 550.49,1154.00 550.49,1154.00 556.33,1139.99 556.33,1139.99 556.33,1139.99 558.76,1132.00 558.76,1132.00 558.76,1132.00 566.83,1114.00 566.83,1114.00 566.83,1114.00 569.34,1106.00 569.34,1106.00 569.34,1106.00 574.54,1095.42 574.54,1095.42 574.54,1095.42 586.53,1071.17 586.53,1071.17 589.89,1065.20 593.95,1060.05 595.00,1053.00 595.00,1053.00 576.90,1076.83 576.90,1076.83 576.90,1076.83 568.00,1088.00 568.00,1088.00 569.40,1077.68 571.80,1076.71 575.24,1068.00 575.24,1068.00 594.25,1028.00 594.25,1028.00 594.25,1028.00 601.83,1013.00 601.83,1013.00 601.83,1013.00 609.79,999.99 609.79,999.99 609.79,999.99 635.68,959.00 635.68,959.00 635.68,959.00 640.51,953.00 640.51,953.00 640.51,953.00 644.36,947.00 644.36,947.00 644.36,947.00 653.51,935.00 653.51,935.00 653.51,935.00 657.41,929.00 657.41,929.00 657.41,929.00 684.74,896.01 684.74,896.01 684.74,896.01 689.70,889.75 689.70,889.75 689.70,889.75 738.00,840.00 738.00,840.00 738.00,840.00 755.11,823.63 755.11,823.63 756.08,822.07 755.84,821.60 756.00,820.00 Z M 1829.00,608.00 C 1829.00,608.00 1830.00,608.00 1830.00,608.00 1830.00,608.00 1829.00,609.00 1829.00,609.00 1829.00,609.00 1829.00,608.00 1829.00,608.00 Z M 1853.00,613.00 C 1853.00,613.00 1854.00,613.00 1854.00,613.00 1854.00,613.00 1853.00,614.00 1853.00,614.00 1853.00,614.00 1853.00,613.00 1853.00,613.00 Z M 1880.00,624.00 C 1881.71,626.68 1881.78,628.95 1878.00,629.00 1878.00,629.00 1880.00,624.00 1880.00,624.00 Z M 1739.00,719.00 C 1739.00,719.00 1740.00,719.00 1740.00,719.00 1740.00,719.00 1739.00,720.00 1739.00,720.00 1739.00,720.00 1739.00,719.00 1739.00,719.00 Z M 1240.00,727.00 C 1240.00,727.00 1241.00,727.00 1241.00,727.00 1241.00,727.00 1240.00,728.00 1240.00,728.00 1240.00,728.00 1240.00,727.00 1240.00,727.00 Z M 742.00,833.00 C 742.00,833.00 743.00,833.00 743.00,833.00 743.00,833.00 742.00,834.00 742.00,834.00 742.00,834.00 742.00,833.00 742.00,833.00 Z M 660.00,922.00 C 660.00,922.00 661.00,922.00 661.00,922.00 661.00,922.00 660.00,923.00 660.00,923.00 660.00,923.00 660.00,922.00 660.00,922.00 Z M 2181.00,973.00 C 2181.00,973.00 2182.00,973.00 2182.00,973.00 2182.00,973.00 2181.00,974.00 2181.00,974.00 2181.00,974.00 2181.00,973.00 2181.00,973.00 Z M 600.00,1047.00 C 600.00,1047.00 598.00,1047.00 598.00,1047.00 598.00,1047.00 595.00,1053.00 595.00,1053.00 598.67,1051.72 599.08,1050.69 600.00,1047.00 Z M 2087.00,2031.00 C 2087.00,2031.00 2067.00,2022.69 2067.00,2022.69 2067.00,2022.69 2029.00,2004.26 2029.00,2004.26 2029.00,2004.26 2017.00,1998.54 2017.00,1998.54 2010.01,1994.30 1974.37,1965.09 1968.04,1958.91 1968.04,1958.91 1946.29,1931.00 1946.29,1931.00 1946.29,1931.00 1929.45,1907.00 1929.45,1907.00 1929.45,1907.00 1920.74,1890.00 1920.74,1890.00 1920.74,1890.00 1901.74,1852.00 1901.74,1852.00 1901.74,1852.00 1864.69,1777.00 1864.69,1777.00 1864.69,1777.00 1856.00,1759.00 1856.00,1759.00 1856.00,1759.00 1829.22,1698.00 1829.22,1698.00 1829.22,1698.00 1814.25,1669.00 1814.25,1669.00 1812.38,1665.43 1810.17,1661.12 1807.62,1658.01 1802.86,1652.21 1790.88,1644.17 1783.00,1645.34 1762.66,1648.36 1752.14,1671.55 1747.14,1689.00 1747.14,1689.00 1708.14,1828.00 1708.14,1828.00 1708.14,1828.00 1673.43,1949.00 1673.43,1949.00 1673.43,1949.00 1646.33,2042.00 1646.33,2042.00 1646.33,2042.00 1611.42,2136.00 1611.42,2136.00 1608.11,2144.81 1609.78,2144.02 1608.10,2151.00 1608.10,2151.00 1599.80,2176.00 1599.80,2176.00 1598.88,2178.31 1597.54,2181.79 1596.05,2183.70 1593.91,2186.45 1592.27,2185.98 1590.48,2190.05 1588.34,2194.92 1590.00,2196.66 1586.56,2203.00 1578.62,2217.61 1566.72,2232.28 1555.00,2244.00 1555.00,2244.00 1541.00,2257.56 1541.00,2257.56 1508.72,2284.79 1466.25,2300.49 1424.00,2300.00 1419.77,2299.95 1399.21,2297.84 1396.05,2296.44 1391.39,2294.37 1392.30,2290.54 1387.89,2289.31 1387.98,2289.34 1365.64,2287.27 1359.00,2285.23 1351.17,2282.81 1341.94,2276.78 1335.00,2272.42 1335.00,2272.42 1309.00,2254.71 1309.00,2254.71 1292.82,2241.02 1276.35,2212.19 1266.75,2193.00 1246.38,2152.26 1229.38,2109.75 1216.58,2066.00 1206.28,2030.84 1195.95,1995.77 1187.89,1960.00 1187.89,1960.00 1186.47,1946.00 1186.47,1946.00 1186.47,1946.00 1181.82,1933.00 1181.82,1933.00 1171.30,1886.83 1163.48,1839.85 1156.73,1793.00 1150.10,1747.04 1143.07,1689.01 1143.00,1643.00 1143.00,1643.00 1142.00,1626.00 1142.00,1626.00 1142.00,1626.00 1142.00,1598.00 1142.00,1598.00 1142.00,1598.00 1141.04,1586.00 1141.04,1586.00 1141.04,1586.00 1141.04,1574.00 1141.04,1574.00 1141.04,1574.00 1140.00,1564.00 1140.00,1564.00 1140.00,1564.00 1140.00,1554.00 1140.00,1554.00 1140.00,1554.00 1139.09,1547.00 1139.09,1547.00 1139.09,1547.00 1135.17,1496.00 1135.17,1496.00 1129.85,1441.11 1123.37,1386.34 1113.58,1332.00 1104.55,1281.93 1094.35,1231.77 1079.72,1183.00 1071.60,1155.95 1062.43,1127.02 1049.22,1102.00 1045.97,1095.84 1040.56,1087.06 1035.91,1082.00 1032.34,1078.12 1026.64,1072.18 1022.00,1069.84 1009.45,1063.50 997.67,1068.53 988.04,1077.29 978.35,1086.10 968.66,1103.18 962.75,1115.00 959.20,1122.11 953.77,1133.44 952.00,1141.00 954.37,1144.88 952.14,1148.68 951.26,1153.00 949.23,1162.88 939.62,1175.75 939.60,1186.00 939.60,1186.00 940.50,1194.00 940.50,1194.00 940.50,1194.00 937.58,1205.00 937.58,1205.00 937.58,1205.00 933.11,1226.00 933.11,1226.00 933.11,1226.00 929.62,1239.00 929.62,1239.00 929.62,1239.00 927.54,1259.00 927.54,1259.00 927.54,1259.00 912.66,1322.00 912.66,1322.00 912.66,1322.00 906.42,1364.00 906.42,1364.00 906.42,1364.00 900.16,1408.00 900.16,1408.00 900.16,1408.00 889.91,1533.00 889.91,1533.00 889.91,1533.00 881.91,1636.00 881.91,1636.00 881.91,1636.00 880.09,1655.00 880.09,1655.00 880.09,1655.00 874.09,1730.00 874.09,1730.00 874.09,1730.00 870.83,1774.00 870.83,1774.00 870.83,1774.00 864.91,1846.00 864.91,1846.00 864.91,1846.00 862.91,1871.00 862.91,1871.00 862.91,1871.00 862.00,1881.00 862.00,1881.00 861.89,1890.75 861.01,1900.35 859.57,1910.00 859.57,1910.00 856.59,1927.00 856.59,1927.00 856.06,1939.98 858.85,1958.02 860.70,1971.00 860.70,1971.00 861.30,1979.00 861.30,1979.00 861.30,1979.00 863.06,1987.00 863.06,1987.00 863.06,1987.00 863.06,1995.00 863.06,1995.00 863.06,1995.00 871.66,2033.00 871.66,2033.00 871.66,2033.00 876.66,2056.00 876.66,2056.00 876.66,2056.00 883.91,2078.00 883.91,2078.00 885.81,2083.77 885.66,2087.00 888.90,2093.00 892.48,2099.64 901.92,2113.74 907.04,2118.99 907.04,2118.99 922.00,2132.48 922.00,2132.48 922.00,2132.48 933.64,2141.31 933.64,2141.31 933.64,2141.31 939.45,2147.01 939.45,2147.01 939.45,2147.01 950.70,2156.15 950.70,2156.15 950.70,2156.15 956.75,2161.87 956.75,2161.87 956.75,2161.87 971.91,2173.63 971.91,2173.63 971.91,2173.63 996.17,2192.90 996.17,2192.90 996.17,2192.90 1006.00,2201.53 1006.00,2201.53 1006.00,2201.53 1012.83,2205.87 1012.83,2205.87 1012.83,2205.87 1018.46,2210.48 1018.46,2210.48 1018.46,2210.48 1037.96,2223.52 1037.96,2223.52 1043.67,2227.30 1048.87,2233.39 1056.00,2234.00 1059.07,2238.99 1061.00,2238.86 1065.49,2242.13 1065.49,2242.13 1093.00,2258.67 1093.00,2258.67 1093.00,2258.67 1118.83,2275.05 1118.83,2275.05 1118.83,2275.05 1124.09,2279.27 1124.09,2279.27 1124.09,2279.27 1131.58,2284.05 1131.58,2284.05 1148.17,2296.16 1164.43,2309.05 1184.00,2316.00 1184.00,2316.00 1184.00,2318.00 1184.00,2318.00 1184.00,2318.00 1183.00,2319.00 1183.00,2319.00 1172.75,2313.98 1176.53,2316.63 1169.09,2314.16 1169.09,2314.16 1163.83,2312.15 1163.83,2312.15 1163.83,2312.15 1156.00,2310.57 1156.00,2310.57 1156.00,2310.57 1149.00,2307.75 1149.00,2307.75 1149.00,2307.75 1143.00,2305.97 1143.00,2305.97 1143.00,2305.97 1132.72,2301.34 1132.72,2301.34 1132.72,2301.34 1115.99,2294.97 1115.99,2294.97 1115.99,2294.97 1104.00,2289.15 1104.00,2289.15 1104.00,2289.15 1082.00,2279.23 1082.00,2279.23 1082.00,2279.23 1053.00,2262.79 1053.00,2262.79 1053.00,2262.79 1042.96,2257.75 1042.96,2257.75 1042.96,2257.75 1035.00,2252.34 1035.00,2252.34 1035.00,2252.34 1018.01,2242.38 1018.01,2242.38 1018.01,2242.38 1010.83,2237.09 1010.83,2237.09 1010.83,2237.09 1003.00,2232.30 1003.00,2232.30 1003.00,2232.30 996.00,2226.50 996.00,2226.50 996.00,2226.50 989.42,2222.75 989.42,2222.75 989.42,2222.75 976.09,2213.34 976.09,2213.34 970.46,2209.05 964.69,2201.74 957.00,2203.00 956.75,2198.17 955.23,2197.74 951.00,2196.00 953.23,2206.29 957.38,2207.76 964.42,2214.59 976.40,2226.20 989.83,2235.65 1003.12,2245.62 1025.69,2262.55 1046.66,2274.67 1071.00,2288.56 1071.00,2288.56 1084.09,2296.45 1084.09,2296.45 1084.09,2296.45 1092.00,2299.88 1092.00,2299.88 1092.00,2299.88 1109.00,2308.97 1109.00,2308.97 1109.00,2308.97 1128.00,2317.87 1128.00,2317.87 1128.00,2317.87 1134.00,2321.17 1134.00,2321.17 1134.00,2321.17 1148.96,2327.30 1148.96,2327.30 1148.96,2327.30 1157.04,2331.41 1157.04,2331.41 1157.04,2331.41 1164.72,2333.75 1164.72,2333.75 1164.72,2333.75 1177.00,2339.53 1177.00,2339.53 1177.00,2339.53 1185.00,2341.84 1185.00,2341.84 1185.00,2341.84 1198.01,2347.70 1198.01,2347.70 1198.01,2347.70 1214.00,2352.64 1214.00,2352.64 1214.00,2352.64 1237.00,2361.27 1237.00,2361.27 1237.00,2361.27 1246.00,2364.04 1246.00,2364.04 1246.00,2364.04 1255.00,2368.92 1255.00,2368.92 1255.00,2368.92 1280.00,2376.56 1280.00,2376.56 1280.00,2376.56 1293.00,2378.21 1293.00,2378.21 1293.00,2378.21 1301.00,2380.47 1301.00,2380.47 1301.00,2380.47 1308.00,2381.46 1308.00,2381.46 1308.00,2381.46 1317.00,2384.54 1317.00,2384.54 1317.00,2384.54 1333.00,2386.37 1333.00,2386.37 1333.00,2386.37 1341.00,2388.24 1341.00,2388.24 1341.00,2388.24 1350.00,2389.45 1350.00,2389.45 1350.00,2389.45 1363.00,2392.74 1363.00,2392.74 1363.00,2392.74 1382.00,2394.00 1382.00,2394.00 1396.49,2394.07 1390.50,2395.03 1398.00,2395.87 1398.00,2395.87 1433.00,2397.00 1433.00,2397.00 1433.00,2397.00 1454.00,2399.00 1454.00,2399.00 1454.00,2399.00 1481.00,2399.00 1481.00,2399.00 1481.00,2399.00 1503.00,2397.00 1503.00,2397.00 1503.00,2397.00 1541.00,2395.95 1541.00,2395.95 1546.26,2395.59 1546.16,2394.12 1553.00,2394.00 1553.00,2394.00 1578.00,2392.74 1578.00,2392.74 1578.00,2392.74 1594.00,2389.26 1594.00,2389.26 1594.00,2389.26 1608.00,2387.91 1608.00,2387.91 1608.00,2387.91 1616.00,2386.13 1616.00,2386.13 1616.00,2386.13 1631.00,2384.75 1631.00,2384.75 1631.00,2384.75 1644.00,2381.25 1644.00,2381.25 1644.00,2381.25 1666.00,2377.52 1666.00,2377.52 1666.00,2377.52 1682.00,2373.45 1682.00,2373.45 1682.00,2373.45 1690.00,2372.30 1690.00,2372.30 1690.00,2372.30 1717.00,2364.55 1717.00,2364.55 1717.00,2364.55 1722.72,2363.58 1722.72,2363.58 1722.72,2363.58 1734.00,2359.97 1734.00,2359.97 1734.00,2359.97 1750.00,2355.53 1750.00,2355.53 1750.00,2355.53 1757.00,2352.47 1757.00,2352.47 1757.00,2352.47 1767.00,2350.27 1767.00,2350.27 1767.00,2350.27 1788.00,2342.08 1788.00,2342.08 1788.00,2342.08 1798.00,2339.46 1798.00,2339.46 1798.00,2339.46 1805.00,2335.97 1805.00,2335.97 1805.00,2335.97 1817.00,2332.04 1817.00,2332.04 1817.00,2332.04 1824.00,2328.72 1824.00,2328.72 1824.00,2328.72 1848.96,2318.42 1848.96,2318.42 1848.96,2318.42 1860.28,2312.60 1860.28,2312.60 1860.28,2312.60 1867.42,2309.91 1867.42,2309.91 1867.42,2309.91 1884.00,2300.60 1884.00,2300.60 1884.00,2300.60 1898.83,2293.50 1898.83,2293.50 1898.83,2293.50 1914.99,2283.68 1914.99,2283.68 1914.99,2283.68 1927.00,2276.95 1927.00,2276.95 1927.00,2276.95 1936.00,2270.30 1936.00,2270.30 1936.00,2270.30 1957.71,2256.02 1957.71,2256.02 1957.71,2256.02 1968.45,2246.79 1968.45,2246.79 1968.45,2246.79 1973.96,2243.50 1973.96,2243.50 1973.96,2243.50 1981.09,2236.73 1981.09,2236.73 1995.25,2223.69 2009.29,2210.11 2020.00,2194.00 2015.50,2193.83 2014.38,2194.75 2013.00,2199.00 2013.00,2199.00 2010.00,2198.00 2010.00,2198.00 2004.45,2205.65 2003.57,2203.64 1998.66,2207.18 1998.66,2207.18 1992.91,2212.00 1992.91,2212.00 1992.91,2212.00 1985.17,2217.02 1985.17,2217.02 1985.17,2217.02 1978.41,2222.32 1978.41,2222.32 1978.41,2222.32 1971.00,2226.42 1971.00,2226.42 1971.00,2226.42 1933.96,2249.06 1933.96,2249.06 1933.96,2249.06 1916.91,2258.29 1916.91,2258.29 1912.64,2260.31 1906.80,2262.11 1904.00,2266.00 1897.45,2265.63 1889.10,2270.55 1883.00,2273.15 1883.00,2273.15 1843.00,2289.48 1843.00,2289.48 1830.25,2293.78 1777.40,2308.34 1765.00,2310.58 1765.00,2310.58 1750.00,2312.17 1750.00,2312.17 1750.00,2312.17 1724.00,2315.17 1724.00,2315.17 1724.00,2315.17 1697.00,2318.00 1697.00,2318.00 1683.88,2318.02 1659.35,2319.76 1648.00,2315.00 1648.00,2315.00 1667.00,2310.17 1667.00,2310.17 1667.00,2310.17 1687.00,2305.57 1687.00,2305.57 1687.00,2305.57 1695.00,2302.60 1695.00,2302.60 1695.00,2302.60 1707.00,2299.04 1707.00,2299.04 1707.00,2299.04 1715.00,2297.26 1715.00,2297.26 1754.37,2284.28 1793.50,2269.88 1831.00,2252.19 1831.00,2252.19 1850.00,2243.41 1850.00,2243.41 1850.00,2243.41 1894.09,2218.49 1894.09,2218.49 1894.09,2218.49 1907.71,2211.00 1907.71,2211.00 1907.71,2211.00 1916.17,2204.79 1916.17,2204.79 1916.17,2204.79 1922.83,2200.74 1922.83,2200.74 1922.83,2200.74 1951.96,2179.05 1951.96,2179.05 1951.96,2179.05 1976.00,2160.00 1976.00,2160.00 1976.00,2160.00 1976.00,2156.00 1976.00,2156.00 1976.00,2156.00 1978.00,2158.00 1978.00,2158.00 1978.00,2158.00 1987.71,2147.89 1987.71,2147.89 1987.71,2147.89 2005.91,2128.01 2005.91,2128.01 2005.91,2128.01 2057.83,2069.70 2057.83,2069.70 2057.83,2069.70 2066.41,2058.09 2066.41,2058.09 2066.41,2058.09 2073.07,2050.71 2073.07,2050.71 2073.07,2050.71 2083.00,2040.00 2083.00,2040.00 2083.00,2040.00 2087.00,2031.00 2087.00,2031.00 Z M 783.00,1077.00 C 775.63,1083.78 764.97,1105.39 759.20,1115.00 749.93,1130.44 737.30,1153.82 730.18,1170.28 730.18,1170.28 728.05,1177.00 728.05,1177.00 728.05,1177.00 719.21,1196.00 719.21,1196.00 719.21,1196.00 707.97,1227.00 707.97,1227.00 707.97,1227.00 701.68,1243.43 701.68,1243.43 701.68,1243.43 700.45,1252.00 700.45,1252.00 700.45,1252.00 696.30,1261.00 696.30,1261.00 696.30,1261.00 692.04,1276.00 692.04,1276.00 692.04,1276.00 688.39,1286.28 688.39,1286.28 688.39,1286.28 686.55,1297.00 686.55,1297.00 686.55,1297.00 680.45,1320.00 680.45,1320.00 680.45,1320.00 679.30,1327.00 679.30,1327.00 679.30,1327.00 677.25,1334.00 677.25,1334.00 677.25,1334.00 675.55,1348.00 675.55,1348.00 675.55,1348.00 672.45,1359.00 672.45,1359.00 672.45,1359.00 671.41,1368.00 671.41,1368.00 671.41,1368.00 669.26,1377.00 669.26,1377.00 669.26,1377.00 668.74,1384.91 668.74,1384.91 668.74,1384.91 667.08,1391.09 667.08,1391.09 667.08,1391.09 665.87,1406.00 665.87,1406.00 665.34,1410.76 664.11,1410.33 664.00,1417.00 664.00,1417.00 662.74,1435.91 662.74,1435.91 661.89,1440.56 661.04,1438.10 661.00,1446.00 661.00,1446.00 661.00,1461.00 661.00,1461.00 660.87,1468.91 659.02,1466.84 659.00,1477.00 659.00,1477.00 659.00,1545.00 659.00,1545.00 659.02,1555.16 660.87,1553.09 661.00,1561.00 661.00,1561.00 661.00,1577.00 661.00,1577.00 661.02,1586.60 662.20,1584.04 662.87,1590.00 662.87,1590.00 664.00,1613.00 664.00,1613.00 664.10,1619.70 665.33,1618.51 666.02,1623.04 666.02,1623.04 666.02,1633.00 666.02,1633.00 666.02,1633.00 668.93,1648.00 668.93,1648.00 668.93,1648.00 668.93,1654.91 668.93,1654.91 668.93,1654.91 670.91,1662.04 670.91,1662.04 670.91,1662.04 672.26,1676.00 672.26,1676.00 672.26,1676.00 675.74,1689.00 675.74,1689.00 675.74,1689.00 677.24,1703.83 677.24,1703.83 677.24,1703.83 679.41,1712.00 679.41,1712.00 679.41,1712.00 680.43,1720.72 680.43,1720.72 682.97,1730.99 684.39,1729.81 685.00,1743.00 685.00,1743.00 687.00,1743.00 687.00,1743.00 687.00,1583.14 706.00,1418.04 736.80,1261.00 744.83,1220.08 754.25,1179.25 765.15,1139.00 765.15,1139.00 776.02,1101.00 776.02,1101.00 776.02,1101.00 783.00,1077.00 783.00,1077.00 Z M 576.00,2010.00 C 576.00,2010.00 569.00,2005.70 569.00,2005.70 565.01,2002.55 550.75,1986.40 547.00,1981.54 547.00,1981.54 541.76,1974.00 541.76,1974.00 541.76,1974.00 525.29,1953.45 525.29,1953.45 522.52,1950.55 519.01,1948.78 516.60,1945.00 514.41,1941.57 515.54,1939.51 513.70,1936.51 512.28,1934.20 509.98,1933.33 506.20,1926.96 500.38,1917.13 494.02,1897.40 494.00,1886.00 494.00,1886.00 494.00,1860.00 494.00,1860.00 494.14,1852.68 496.80,1847.31 504.99,1848.11 511.50,1848.75 514.20,1854.71 516.62,1860.00 520.83,1869.20 531.46,1892.71 532.00,1902.00 532.00,1902.00 535.00,1899.00 535.00,1899.00 535.33,1906.87 535.45,1908.74 542.00,1914.00 541.56,1915.52 541.11,1916.29 541.24,1918.00 541.55,1921.92 548.41,1933.76 551.00,1937.00 551.00,1937.00 552.00,1933.00 552.00,1933.00 552.00,1933.00 555.00,1936.00 555.00,1936.00 551.78,1941.28 552.57,1945.69 558.00,1949.00 557.67,1955.52 560.88,1959.26 563.59,1965.00 563.59,1965.00 574.75,1991.00 574.75,1991.00 577.04,1997.05 581.19,2004.73 576.00,2010.00 Z M 610.22,2016.91 C 625.50,2014.42 632.05,2036.87 620.91,2041.98 619.34,2042.51 617.65,2042.26 616.00,2041.98 614.17,2042.02 612.09,2041.96 610.22,2041.11 602.55,2037.07 598.36,2022.95 610.22,2016.91 Z M 2167.00,2041.00 C 2167.00,2041.00 2156.00,2041.00 2156.00,2041.00 2147.40,2041.16 2146.55,2045.01 2141.93,2051.28 2141.93,2051.28 2126.45,2073.01 2126.45,2073.01 2123.42,2078.08 2121.28,2078.25 2120.00,2084.00 2125.59,2080.92 2135.71,2071.73 2140.96,2067.27 2148.92,2060.49 2161.97,2049.97 2167.00,2041.00 Z M 2195.00,2041.01 C 2195.00,2041.01 2185.00,2041.01 2185.00,2041.01 2178.15,2041.30 2178.01,2047.06 2176.42,2053.00 2173.93,2062.32 2172.63,2062.67 2169.67,2070.04 2169.67,2070.04 2166.84,2078.58 2166.84,2078.58 2163.74,2085.27 2161.10,2087.43 2160.00,2095.00 2167.08,2089.15 2175.12,2075.43 2179.87,2067.30 2179.87,2067.30 2183.99,2061.70 2183.99,2061.70 2187.08,2056.86 2193.11,2046.13 2195.00,2041.01 Z M 629.00,2091.84 C 626.78,2088.34 624.41,2087.84 621.63,2084.81 618.58,2081.50 610.95,2071.05 609.06,2067.00 607.49,2063.94 603.60,2056.73 609.06,2055.33 614.97,2053.86 619.62,2060.14 625.00,2061.00 629.14,2067.82 638.23,2073.06 641.08,2080.00 643.08,2084.87 641.46,2090.30 636.00,2091.84 634.43,2092.09 630.76,2092.00 629.00,2091.84 Z M 790.00,2325.00 C 786.87,2318.19 778.62,2313.01 773.09,2308.24 773.09,2308.24 740.00,2277.96 740.00,2277.96 715.14,2253.96 690.82,2229.24 667.70,2203.55 667.70,2203.55 661.85,2195.55 661.85,2195.55 661.85,2195.55 648.05,2180.55 648.05,2180.55 648.05,2180.55 641.25,2171.09 641.25,2171.09 635.18,2163.92 636.73,2165.47 631.93,2158.26 631.93,2158.26 626.79,2151.70 626.79,2151.70 626.79,2151.70 617.83,2136.18 617.83,2136.18 615.05,2131.13 612.69,2130.97 609.88,2122.04 608.53,2117.75 603.88,2110.54 605.64,2106.16 607.31,2101.98 613.32,2105.16 615.83,2106.82 615.83,2106.82 639.49,2127.28 639.49,2127.28 639.49,2127.28 661.98,2147.87 661.98,2147.87 661.98,2147.87 674.00,2158.13 674.00,2158.13 674.00,2158.13 701.00,2184.04 701.00,2184.04 701.00,2184.04 729.00,2211.95 729.00,2211.95 729.00,2211.95 737.87,2219.71 737.87,2219.71 737.87,2219.71 764.17,2244.57 764.17,2244.57 764.17,2244.57 769.92,2249.29 769.92,2249.29 769.92,2249.29 784.45,2263.28 784.45,2263.28 784.45,2263.28 790.74,2267.71 790.74,2267.71 790.74,2267.71 809.46,2283.93 809.46,2283.93 809.46,2283.93 831.58,2300.29 831.58,2300.29 831.58,2300.29 851.04,2315.66 851.04,2315.66 851.04,2315.66 867.00,2325.86 867.00,2325.86 867.00,2325.86 896.00,2344.42 896.00,2344.42 896.00,2344.42 928.00,2364.55 928.00,2364.55 928.00,2364.55 949.00,2376.43 949.00,2376.43 949.00,2376.43 1025.00,2419.30 1025.00,2419.30 1025.00,2419.30 1089.00,2454.87 1089.00,2454.87 1089.00,2454.87 1122.58,2470.80 1122.58,2470.80 1122.58,2470.80 1163.00,2490.54 1163.00,2490.54 1163.00,2490.54 1174.01,2495.24 1174.01,2495.24 1174.01,2495.24 1179.58,2496.84 1179.58,2496.84 1179.58,2496.84 1206.00,2508.83 1206.00,2508.83 1206.00,2508.83 1217.00,2512.99 1217.00,2512.99 1217.00,2512.99 1229.99,2518.76 1229.99,2518.76 1236.00,2521.82 1233.68,2521.35 1241.00,2524.00 1240.44,2525.39 1240.26,2526.73 1238.58,2527.30 1238.58,2527.30 1224.00,2525.04 1224.00,2525.04 1215.87,2524.63 1218.86,2524.22 1213.00,2523.06 1213.00,2523.06 1205.00,2523.06 1205.00,2523.06 1205.00,2523.06 1197.00,2520.96 1197.00,2520.96 1197.00,2520.96 1188.00,2519.75 1188.00,2519.75 1180.94,2518.51 1178.28,2515.15 1171.00,2518.00 1171.00,2518.00 1164.00,2516.00 1164.00,2516.00 1164.00,2516.00 1164.00,2513.00 1164.00,2513.00 1157.93,2513.00 1149.84,2512.23 1144.00,2510.63 1144.00,2510.63 1137.00,2508.18 1137.00,2508.18 1137.00,2508.18 1122.00,2504.63 1122.00,2504.63 1122.00,2504.63 1115.29,2503.57 1115.29,2503.57 1115.29,2503.57 1108.83,2500.48 1108.83,2500.48 1108.83,2500.48 1102.17,2499.19 1102.17,2499.19 1102.17,2499.19 1084.00,2492.71 1084.00,2492.71 1084.00,2492.71 1059.04,2483.63 1059.04,2483.63 1059.04,2483.63 1045.00,2479.03 1045.00,2479.03 1045.00,2479.03 1028.00,2471.03 1028.00,2471.03 1028.00,2471.03 1016.32,2466.63 1016.32,2466.63 1016.32,2466.63 1011.68,2463.78 1011.68,2463.78 1011.68,2463.78 994.00,2455.58 994.00,2455.58 971.17,2444.79 948.86,2433.22 927.00,2420.58 927.00,2420.58 900.00,2405.22 900.00,2405.22 900.00,2405.22 885.58,2395.21 885.58,2395.21 885.58,2395.21 879.58,2391.82 879.58,2391.82 879.58,2391.82 861.58,2379.00 861.58,2379.00 861.58,2379.00 854.00,2374.25 854.00,2374.25 854.00,2374.25 836.29,2360.99 836.29,2360.99 836.29,2360.99 828.26,2353.74 828.26,2353.74 828.26,2353.74 817.00,2345.31 817.00,2345.31 810.29,2340.45 800.70,2329.74 793.00,2328.00 793.00,2328.00 793.00,2324.00 793.00,2324.00 793.00,2324.00 790.00,2325.00 790.00,2325.00 Z M 1943.00,2182.00 C 1943.00,2182.00 1944.00,2182.00 1944.00,2182.00 1944.00,2182.00 1943.00,2183.00 1943.00,2183.00 1943.00,2183.00 1943.00,2182.00 1943.00,2182.00 Z M 996.00,2234.00 C 996.00,2234.00 997.00,2234.00 997.00,2234.00 997.00,2234.00 996.00,2235.00 996.00,2235.00 996.00,2235.00 996.00,2234.00 996.00,2234.00 Z M 816.00,2261.00 C 816.00,2261.00 817.00,2261.00 817.00,2261.00 817.00,2261.00 816.00,2262.00 816.00,2262.00 816.00,2262.00 816.00,2261.00 816.00,2261.00 Z M 924.00,2275.00 C 924.00,2275.00 923.00,2275.00 923.00,2275.00 923.00,2275.00 924.00,2276.00 924.00,2276.00 924.00,2276.00 924.00,2275.00 924.00,2275.00 Z M 926.00,2276.00 C 926.00,2276.00 925.00,2276.00 925.00,2276.00 925.00,2276.00 926.00,2277.00 926.00,2277.00 926.00,2277.00 926.00,2276.00 926.00,2276.00 Z M 927.00,2277.00 C 927.00,2277.00 926.00,2278.00 926.00,2278.00 926.00,2278.00 1047.00,2363.24 1047.00,2363.24 1047.00,2363.24 1066.00,2374.15 1066.00,2374.15 1066.00,2374.15 1082.28,2384.78 1082.28,2384.78 1082.28,2384.78 1101.00,2395.24 1101.00,2395.24 1101.00,2395.24 1130.00,2411.96 1130.00,2411.96 1130.00,2411.96 1178.91,2436.39 1178.91,2436.39 1178.91,2436.39 1198.00,2444.79 1198.00,2444.79 1198.00,2444.79 1212.00,2451.88 1212.00,2451.88 1212.00,2451.88 1232.00,2459.98 1232.00,2459.98 1232.00,2459.98 1268.00,2475.22 1268.00,2475.22 1268.00,2475.22 1280.83,2479.38 1280.83,2479.38 1280.83,2479.38 1291.00,2483.03 1291.00,2483.03 1291.00,2483.03 1298.00,2484.71 1298.00,2484.71 1298.00,2484.71 1317.00,2490.55 1317.00,2490.55 1317.00,2490.55 1331.00,2492.45 1331.00,2492.45 1331.00,2492.45 1342.00,2495.74 1342.00,2495.74 1342.00,2495.74 1355.91,2497.25 1355.91,2497.25 1355.91,2497.25 1362.09,2498.89 1362.09,2498.89 1362.09,2498.89 1381.96,2500.13 1381.96,2500.13 1381.96,2500.13 1388.17,2501.95 1388.17,2501.95 1388.17,2501.95 1403.00,2501.95 1403.00,2501.95 1403.00,2501.95 1416.00,2504.00 1416.00,2504.00 1416.00,2504.00 1444.00,2505.00 1444.00,2505.00 1444.00,2505.00 1461.00,2507.00 1461.00,2507.00 1461.00,2507.00 1482.00,2507.00 1482.00,2507.00 1482.00,2507.00 1482.00,2505.00 1482.00,2505.00 1466.91,2504.95 1466.19,2502.75 1454.00,2500.22 1454.00,2500.22 1440.00,2497.25 1440.00,2497.25 1440.00,2497.25 1431.00,2496.04 1431.00,2496.04 1431.00,2496.04 1414.00,2492.25 1414.00,2492.25 1414.00,2492.25 1406.00,2491.23 1406.00,2491.23 1406.00,2491.23 1398.00,2489.25 1398.00,2489.25 1398.00,2489.25 1378.09,2485.74 1378.09,2485.74 1378.09,2485.74 1369.99,2483.44 1369.99,2483.44 1369.99,2483.44 1358.00,2481.26 1358.00,2481.26 1358.00,2481.26 1350.00,2480.52 1350.00,2480.52 1350.00,2480.52 1343.00,2478.46 1343.00,2478.46 1343.00,2478.46 1332.00,2476.22 1332.00,2476.22 1332.00,2476.22 1322.09,2474.75 1322.09,2474.75 1322.09,2474.75 1312.00,2471.45 1312.00,2471.45 1312.00,2471.45 1300.00,2469.78 1300.00,2469.78 1300.00,2469.78 1270.00,2460.73 1270.00,2460.73 1270.00,2460.73 1260.00,2458.53 1260.00,2458.53 1260.00,2458.53 1254.00,2455.82 1254.00,2455.82 1254.00,2455.82 1239.00,2450.91 1239.00,2450.91 1239.00,2450.91 1228.00,2445.97 1228.00,2445.97 1228.00,2445.97 1219.00,2442.97 1219.00,2442.97 1219.00,2442.97 1198.00,2432.64 1198.00,2432.64 1198.00,2432.64 1191.00,2430.14 1191.00,2430.14 1191.00,2430.14 1179.99,2424.25 1179.99,2424.25 1179.99,2424.25 1172.00,2418.80 1172.00,2418.80 1163.16,2413.55 1149.42,2405.83 1143.00,2398.00 1143.00,2398.00 1144.00,2397.00 1144.00,2397.00 1144.00,2397.00 1174.00,2406.97 1174.00,2406.97 1174.00,2406.97 1197.00,2414.47 1197.00,2414.47 1197.00,2414.47 1205.17,2416.85 1205.17,2416.85 1205.17,2416.85 1214.00,2418.75 1214.00,2418.75 1214.00,2418.75 1222.00,2422.33 1222.00,2422.33 1222.00,2422.33 1245.00,2430.00 1245.00,2430.00 1245.00,2430.00 1251.00,2428.00 1251.00,2428.00 1246.73,2420.39 1234.78,2419.55 1227.42,2415.97 1227.42,2415.97 1216.00,2410.29 1216.00,2410.29 1216.00,2410.29 1202.04,2404.91 1202.04,2404.91 1202.04,2404.91 1159.00,2384.83 1159.00,2384.83 1159.00,2384.83 1142.83,2377.42 1142.83,2377.42 1142.83,2377.42 1091.00,2353.26 1091.00,2353.26 1091.00,2353.26 1084.00,2350.54 1084.00,2350.54 1084.00,2350.54 1068.00,2342.62 1068.00,2342.62 1068.00,2342.62 1043.00,2331.65 1043.00,2331.65 1043.00,2331.65 1036.00,2327.87 1036.00,2327.87 1036.00,2327.87 986.00,2304.69 986.00,2304.69 986.00,2304.69 927.00,2277.00 927.00,2277.00 Z M 1050.00,2346.00 C 1050.00,2346.00 1054.00,2346.00 1054.00,2346.00 1065.20,2346.17 1077.56,2354.23 1081.28,2365.00 1082.14,2367.49 1081.99,2370.39 1082.00,2373.00 1075.95,2372.52 1077.11,2371.52 1071.96,2369.44 1059.95,2364.59 1050.06,2360.76 1050.00,2346.00 Z M 827.00,2356.00 C 827.00,2356.00 828.00,2356.00 828.00,2356.00 828.00,2356.00 827.00,2357.00 827.00,2357.00 827.00,2357.00 827.00,2356.00 827.00,2356.00 Z M 2120.00,2369.00 C 2120.00,2369.00 2121.00,2369.00 2121.00,2369.00 2121.00,2369.00 2120.00,2370.00 2120.00,2370.00 2120.00,2370.00 2120.00,2369.00 2120.00,2369.00 Z M 1181.00,2435.00 C 1181.00,2435.00 1182.00,2435.00 1182.00,2435.00 1182.00,2435.00 1181.00,2436.00 1181.00,2436.00 1181.00,2436.00 1181.00,2435.00 1181.00,2435.00 Z M 1189.00,2499.00 C 1189.00,2499.00 1190.00,2499.00 1190.00,2499.00 1190.00,2499.00 1189.00,2500.00 1189.00,2500.00 1189.00,2500.00 1189.00,2499.00 1189.00,2499.00 Z M 1790.00,2523.00 C 1790.00,2523.00 1784.00,2523.00 1784.00,2523.00 1784.00,2523.00 1784.00,2525.00 1784.00,2525.00 1784.00,2525.00 1790.00,2525.00 1790.00,2525.00 1790.00,2525.00 1790.00,2523.00 1790.00,2523.00 Z M 1803.00,2526.00 C 1803.07,2527.97 1802.97,2528.07 1801.00,2528.00 1801.00,2528.00 1802.00,2528.00 1802.00,2528.00 1802.00,2528.00 1803.00,2526.00 1803.00,2526.00 Z M 1778.00,2534.00 C 1778.00,2534.00 1790.00,2537.00 1790.00,2537.00 1785.54,2537.00 1780.97,2537.82 1778.00,2534.00 Z" fill="none" stroke="#E7C9AF" stroke-width="86" stroke-linecap="round" stroke-linejoin="round"/>
</svg>
